# xmcd
#
# Track frame offsets:
# 150
# 13030
# 30449
# 49470
# 60008
# 72368
# 100648
# 110463
# 120335
# 143749
# 163043
# 182779
# 191873
# 215181
# 234500
# 250927
# 283880
# 299858
# 314653
# 325025
#
# Disc length: 4577 seconds
#
#
# Revision: 0
# Processed by: cddbd v1.5.2PL0 Copyright (c) Steve Scherf et al.
# Submitted via: FreeRIP 2.943 
#
DISCID=3211df14
DTITLE=VARIOS  - LO MEJOR DE LA MUSICA BOLICHERA
DYEAR=2008
DGENRE=Dance
TTITLE0=Tell me why(radio edit)-supermode
TTITLE1=Kylie minouge-can t get you out of my head
TTITLE2=World hold on
TTITLE3=Rock this party
TTITLE4=Crazy
TTITLE5=Fascination
TTITLE6=Funk a faction
TTITLE7=Put your hands up
TTITLE8=Exceder
TTITLE9=It´s so
TTITLE10=ATB-ecstasy
TTITLE11=Dj Tiesto-insomnia
TTITLE12=Dj Tiesto and Armin Van Buuren-eternity
TTITLE13=Dj Tiesto (Dj Sakin)-blue sky
TTITLE14=Dj Tiesto vs Kane-rain down on me (radio edit)
TTITLE15=Dj Sasha and John Digweed-heaven scent (bedrock mix)
TTITLE16=Verano 2003-everybody jump!
TTITLE17=Verano 2002-marcha buena-boliche ku
TTITLE18=Verano 2001-putyour hands up in the air
TTITLE19=Robert Miles-children
EXTD=
EXTT0=
EXTT1=
EXTT2=
EXTT3=
EXTT4=
EXTT5=
EXTT6=
EXTT7=
EXTT8=
EXTT9=
EXTT10=
EXTT11=
EXTT12=
EXTT13=
EXTT14=
EXTT15=
EXTT16=
EXTT17=
EXTT18=
EXTT19=
PLAYORDER=
